# xmcd CD database file
#
# Track frame offsets:
#	150
#	11978
#	24522
#	30861
#	34849
#	44304
#	48997
#	55584
#	62478
#	69170
#	78521
#	86362
#	96993
#	118948
#	131863
#	134510
#	139110
#	146177
#	156825
#	162051
#	167997
#	173722
#	181034
#	188540
#	196493
#	210522
#	216621
#
# Disc length: 3020 seconds
#
# Revision: 1
# Processed by: cddbd v1.5.2PL0 Copyright (c) Steve Scherf et al.
# Submitted via: CDex 1.51
#
DISCID=7d0bca1b
DTITLE=Singakademie Dresden - Weihnachtskonzert im Kloster St. Marienstern
DYEAR=2001
DGENRE=Classical
TTITLE0=Wachet auf, ruft und die Stimme (J. S. Bach)
TTITLE1=Also hat Gott die Welt geliebt (Heinrich Schütz)
TTITLE2=Wie soll ich dich empfangen (J. S. Bach)
TTITLE3=Brich an, o schönes Morgenlicht (J. S. Bach)
TTITLE4=Tochter Zion, freue dich (G. F. Händel)
TTITLE5=Alle Jahre wieder (Christian Heinrich Rinck)
TTITLE6=Die Weihnachtsnachtigall (Gottfried Wolters)
TTITLE7=Kindelein zart (Magdalene Kemlein)
TTITLE8=Lieb Nachtigall (Fritz Jöde)
TTITLE9=Es blühen drei Rosen (Leopold Tesarek)
TTITLE10=Das Wort ward Fleisch (Max Reger)
TTITLE11=Unser lieben Frauen Traum (Max Reger)
TTITLE12=O magnum mysterium (Javier Busto)
TTITLE13=Trittst du wieder vor die Nacht (W. Weismann)
TTITLE14=Aller Augen (Heinrich Schütz)
TTITLE15=Panis angelicus (Claudio Casciolini)
TTITLE16=Rorado coeli (Vodnansky)
TTITLE17=Ave Maria Glöcklein (Otto Fischer)
TTITLE18=Mater et filia (Carl Orff)
TTITLE19=Nun singet und seid froh (Fritz Neumeyer)
TTITLE20=Mater Dei (Lorenz Maierhofer)
TTITLE21=Kommt all herein, ihr Engelein (H. Hildebrandt)
TTITLE22=Gib mir nicht Glanz (Jean Sibelius)
TTITLE23=Schlaf, mein Kindlein (Russische Volksweise)
TTITLE24=Es ist ein Ros entsprungen (Michael Praetorius)
TTITLE25=Erfreue dich, Himmel (Hermann Sprenger)
TTITLE26=Herbei, o ihr Gläubigen (Franz Hugo)
EXTD=YEAR: 2001
EXTT0=
EXTT1=
EXTT2=
EXTT3=
EXTT4=
EXTT5=
EXTT6=
EXTT7=
EXTT8=
EXTT9=
EXTT10=
EXTT11=
EXTT12=
EXTT13=
EXTT14=
EXTT15=
EXTT16=
EXTT17=
EXTT18=
EXTT19=
EXTT20=
EXTT21=
EXTT22=
EXTT23=
EXTT24=
EXTT25=
EXTT26=
PLAYORDER=
